<svg width="70" height="70" viewBox="0 0 70 70" fill="none" xmlns="http://www.w3.org/2000/svg">
<g opacity="0.8">
<path d="M42 33.4348L34.5882 45V36.7391H28L34.5882 26V33.4348H42Z" fill="white"/>
<path fill-rule="evenodd" clip-rule="evenodd" d="M32 13C30.3431 13 29 14.3431 29 16V17H25C23.3431 17 22 18.3431 22 20V51C22 52.6569 23.3431 54 25 54H45C46.6569 54 48 52.6569 48 51V20C48 18.3431 46.6569 17 45 17H41V16C41 14.3431 39.6569 13 38 13H32ZM39 17V16C39 15.4477 38.5523 15 38 15H32C31.4477 15 31 15.4477 31 16V17H39ZM45 19H25C24.4477 19 24 19.4477 24 20V51C24 51.5523 24.4477 52 25 52H45C45.5523 52 46 51.5523 46 51V20C46 19.4477 45.5523 19 45 19Z" fill="white"/>
<path fill-rule="evenodd" clip-rule="evenodd" d="M35 68C53.2254 68 68 53.2254 68 35C68 16.7746 53.2254 2 35 2C16.7746 2 2 16.7746 2 35C2 53.2254 16.7746 68 35 68ZM35 70C54.33 70 70 54.33 70 35C70 15.67 54.33 0 35 0C15.67 0 0 15.67 0 35C0 54.33 15.67 70 35 70Z" fill="white"/>
</g>
</svg>
