<svg width="70" height="70" viewBox="0 0 70 70" fill="none" xmlns="http://www.w3.org/2000/svg">
<g opacity="0.8">
<path fill-rule="evenodd" clip-rule="evenodd" d="M25.1214 20.3634C25.1214 18.5059 26.6273 17 28.4849 17C30.3425 17 31.8483 18.5059 31.8483 20.3634V27.3391H37.7867V20.3634C37.7867 18.5059 39.2926 17 41.1501 17C43.0077 17 44.5136 18.5059 44.5136 20.3634V27.3391H49.4828V39.5062C49.4828 40.5076 48.9673 41.4385 48.1186 41.9699L36.6487 49.1514C38.8669 50.8454 40.2167 53.0102 40.6963 55.3006C41.2636 58.0097 40.5948 60.8141 38.8385 63.0844C35.2975 67.6618 27.6054 69.85 17.0537 65.7212L17.7825 63.8587C27.8606 67.8023 34.4599 65.4759 37.2566 61.8606C38.6693 60.0345 39.1811 57.8231 38.7387 55.7105C38.3196 53.7091 37.0274 51.7237 34.6865 50.2159L34.4232 50.0511C34.3946 50.0336 34.3658 50.0163 34.3369 49.999C34.3267 49.9929 34.3164 49.9868 34.3062 49.9807L34.3074 49.9786L21.5165 41.9699C20.6677 41.4385 20.1523 40.5076 20.1523 39.5062V27.3391H25.1214V20.3634ZM28.4849 19C27.7319 19 27.1214 19.6104 27.1214 20.3634V29.3391H22.1523V39.5062C22.1523 39.8186 22.313 40.109 22.5778 40.2748L34.8175 47.9383L47.0572 40.2748C47.322 40.109 47.4828 39.8186 47.4828 39.5062V29.3391H42.5136V20.3634C42.5136 19.6104 41.9031 19 41.1501 19C40.3971 19 39.7867 19.6104 39.7867 20.3634V29.3391H29.8483V20.3634C29.8483 19.6104 29.2379 19 28.4849 19Z" fill="white"/>
<path fill-rule="evenodd" clip-rule="evenodd" d="M35 68C53.2254 68 68 53.2254 68 35C68 16.7746 53.2254 2 35 2C16.7746 2 2 16.7746 2 35C2 53.2254 16.7746 68 35 68ZM35 70C54.33 70 70 54.33 70 35C70 15.67 54.33 0 35 0C15.67 0 0 15.67 0 35C0 54.33 15.67 70 35 70Z" fill="white"/>
</g>
</svg>
