<svg width="70" height="70" viewBox="0 0 70 70" fill="none" xmlns="http://www.w3.org/2000/svg">
<g opacity="0.8">
<path fill-rule="evenodd" clip-rule="evenodd" d="M42.2564 14H27.4844L19.7764 52H50.2312L42.2564 14ZM22.2228 50L29.1195 16H34V18.8333L36 18.8333V16H40.6325L47.7679 50H36V47.1667H34L34 50H22.2228ZM34 24.5L34 30.1667H36V24.5H34ZM34 35.8333V41.5H36L36 35.8333H34Z" fill="white"/>
<path fill-rule="evenodd" clip-rule="evenodd" d="M35 68C53.2254 68 68 53.2254 68 35C68 16.7746 53.2254 2 35 2C16.7746 2 2 16.7746 2 35C2 53.2254 16.7746 68 35 68ZM35 70C54.33 70 70 54.33 70 35C70 15.67 54.33 0 35 0C15.67 0 0 15.67 0 35C0 54.33 15.67 70 35 70Z" fill="white"/>
</g>
</svg>
