<svg width="70" height="70" viewBox="0 0 70 70" fill="none" xmlns="http://www.w3.org/2000/svg">
<g opacity="0.8">
<path d="M34 18.0292C29.7172 18.2803 25.8569 20.1339 23.0015 23.0072L25.8899 25.6793L24.5488 27.1631L21.6763 24.5056C19.3752 27.4341 18 31.1396 18 35.1725L18 35.2109H22V37.2109H18.1185C18.5278 40.7089 19.9776 43.8832 22.1466 46.4118L24.8447 44.0712L26.1553 45.582L21.9997 49.1869L21.3413 48.5C18.0347 45.0501 16 40.3493 16 35.1725C16 24.5928 24.4976 16 35 16C45.5024 16 54 24.5928 54 35.1725C54 40.4514 51.8843 45.2352 48.4617 48.7025L47.763 49.4103L43.8014 45.5421L45.1986 44.1111L47.7164 46.5696C50.0054 43.9656 51.5224 40.6546 51.9049 37H48V35H51.9992C51.962 31.1841 50.6937 27.6685 48.5774 24.8367L45.707 27.707L44.2928 26.2928L47.2841 23.3015C44.4032 20.2609 40.4273 18.2888 36 18.0292V22H34V18.0292Z" fill="white"/>
<path fill-rule="evenodd" clip-rule="evenodd" d="M39 35C39 35.2129 38.9834 35.4219 38.9513 35.6258L44.2278 37.9751L43.4144 39.8022L38.1542 37.4602C37.4221 38.3974 36.2814 39 35 39C32.7909 39 31 37.2091 31 35C31 32.7909 32.7909 31 35 31C37.2091 31 39 32.7909 39 35ZM37 35C37 36.1046 36.1046 37 35 37C33.8954 37 33 36.1046 33 35C33 33.8954 33.8954 33 35 33C36.1046 33 37 33.8954 37 35Z" fill="white"/>
<path fill-rule="evenodd" clip-rule="evenodd" d="M35 68C53.2254 68 68 53.2254 68 35C68 16.7746 53.2254 2 35 2C16.7746 2 2 16.7746 2 35C2 53.2254 16.7746 68 35 68ZM35 70C54.33 70 70 54.33 70 35C70 15.67 54.33 0 35 0C15.67 0 0 15.67 0 35C0 54.33 15.67 70 35 70Z" fill="white"/>
</g>
</svg>
