<svg width="70" height="70" viewBox="0 0 70 70" fill="none" xmlns="http://www.w3.org/2000/svg">
<g opacity="0.8">
<path d="M20 35C20 26.7157 26.7157 20 35 20C39.8145 20 44.0999 22.2676 46.8457 25.7966L42.6489 27.0255L51 35L53.7306 23.7805L48.891 25.1977C45.814 20.845 40.7395 18 35 18C25.6112 18 18 25.6112 18 35C18 44.3888 25.6112 52 35 52C40.4632 52 45.3248 49.4218 48.4332 45.4199L46.8537 44.193C44.1078 47.7282 39.8195 50 35 50C26.7157 50 20 43.2843 20 35Z" fill="white"/>
<path fill-rule="evenodd" clip-rule="evenodd" d="M42 35C42 38.866 38.866 42 35 42C31.134 42 28 38.866 28 35C28 31.134 31.134 28 35 28C38.866 28 42 31.134 42 35ZM40 35C40 37.7614 37.7614 40 35 40C32.2386 40 30 37.7614 30 35C30 32.2386 32.2386 30 35 30C37.7614 30 40 32.2386 40 35Z" fill="white"/>
<path fill-rule="evenodd" clip-rule="evenodd" d="M35 68C53.2254 68 68 53.2254 68 35C68 16.7746 53.2254 2 35 2C16.7746 2 2 16.7746 2 35C2 53.2254 16.7746 68 35 68ZM35 70C54.33 70 70 54.33 70 35C70 15.67 54.33 0 35 0C15.67 0 0 15.67 0 35C0 54.33 15.67 70 35 70Z" fill="white"/>
</g>
</svg>
