<svg width="70" height="70" viewBox="0 0 70 70" fill="none" xmlns="http://www.w3.org/2000/svg">
<g opacity="0.8">
<path fill-rule="evenodd" clip-rule="evenodd" d="M20.001 14C18.3441 14 17.001 15.3431 17.001 17V27C17.001 28.6569 18.3441 30 20.001 30H24.001C25.6578 30 27.001 28.6569 27.001 27V24H34.001V31H36.001V24H43V27C43 28.6569 44.3431 30 46 30H50C51.6569 30 53 28.6569 53 27V17C53 15.3431 51.6569 14 50 14H46C44.3431 14 43 15.3431 43 17V22H40.951C40.9838 21.8384 41.001 21.6712 41.001 21.5C41.001 20.1193 39.8817 19 38.501 19C37.1203 19 36.001 20.1193 36.001 21.5C36.001 21.6712 36.0182 21.8384 36.051 22H33.951C33.9838 21.8384 34.001 21.6712 34.001 21.5C34.001 20.1193 32.8817 19 31.501 19C30.1203 19 29.001 20.1193 29.001 21.5C29.001 21.6712 29.0182 21.8384 29.051 22H27.001V17C27.001 15.3431 25.6578 14 24.001 14H20.001ZM24.001 16H20.001C19.4487 16 19.001 16.4477 19.001 17V27C19.001 27.5523 19.4487 28 20.001 28H24.001C24.5533 28 25.001 27.5523 25.001 27V17C25.001 16.4477 24.5533 16 24.001 16ZM31.501 22C31.7771 22 32.001 21.7761 32.001 21.5C32.001 21.2239 31.7771 21 31.501 21C31.2248 21 31.001 21.2239 31.001 21.5C31.001 21.7761 31.2248 22 31.501 22ZM38.501 22C38.7771 22 39.001 21.7761 39.001 21.5C39.001 21.2239 38.7771 21 38.501 21C38.2248 21 38.001 21.2239 38.001 21.5C38.001 21.7761 38.2248 22 38.501 22ZM50 16H46C45.4477 16 45 16.4477 45 17V27C45 27.5523 45.4477 28 46 28H50C50.5523 28 51 27.5523 51 27V17C51 16.4477 50.5523 16 50 16Z" fill="white"/>
<path fill-rule="evenodd" clip-rule="evenodd" d="M53 53C53 54.6569 51.6569 56 50 56H46C44.3431 56 43 54.6569 43 53V48H40.951C40.9838 48.1616 41.001 48.3288 41.001 48.5C41.001 49.8807 39.8817 51 38.501 51C37.1203 51 36.001 49.8807 36.001 48.5C36.001 48.3288 36.0182 48.1616 36.051 48H33.951C33.9838 48.1616 34.001 48.3288 34.001 48.5C34.001 49.8807 32.8817 51 31.501 51C30.1203 51 29.001 49.8807 29.001 48.5C29.001 48.3288 29.0182 48.1616 29.051 48H27.001V53C27.001 54.6569 25.6578 56 24.001 56H20.001C18.3441 56 17.001 54.6569 17.001 53V43C17.001 41.3431 18.3441 40 20.001 40H24.001C25.6578 40 27.001 41.3431 27.001 43L27.001 46H34.001V39H36.001V46H43V43C43 41.3431 44.3431 40 46 40H50C51.6569 40 53 41.3431 53 43V53ZM50 54H46C45.4477 54 45 53.5523 45 53L45 43C45 42.4477 45.4477 42 46 42H50C50.5523 42 51 42.4477 51 43V53C51 53.5523 50.5523 54 50 54ZM38.001 48.5C38.001 48.2239 38.2248 48 38.501 48C38.7771 48 39.001 48.2239 39.001 48.5C39.001 48.7761 38.7771 49 38.501 49C38.2248 49 38.001 48.7761 38.001 48.5ZM31.001 48.5C31.001 48.2239 31.2248 48 31.501 48C31.7771 48 32.001 48.2239 32.001 48.5C32.001 48.7761 31.7771 49 31.501 49C31.2248 49 31.001 48.7761 31.001 48.5ZM20.001 54H24.001C24.5533 54 25.001 53.5523 25.001 53L25.001 43C25.001 42.4477 24.5533 42 24.001 42H20.001C19.4487 42 19.001 42.4477 19.001 43L19.001 53C19.001 53.5523 19.4487 54 20.001 54Z" fill="white"/>
<path d="M34.001 33.5566V36.4443H36.001V33.5566H34.001Z" fill="white"/>
<path fill-rule="evenodd" clip-rule="evenodd" d="M35 68C53.2254 68 68 53.2254 68 35C68 16.7746 53.2254 2 35 2C16.7746 2 2 16.7746 2 35C2 53.2254 16.7746 68 35 68ZM35 70C54.33 70 70 54.33 70 35C70 15.67 54.33 0 35 0C15.67 0 0 15.67 0 35C0 54.33 15.67 70 35 70Z" fill="white"/>
<path fill-rule="evenodd" clip-rule="evenodd" d="M35 68C53.2254 68 68 53.2254 68 35C68 16.7746 53.2254 2 35 2C16.7746 2 2 16.7746 2 35C2 53.2254 16.7746 68 35 68ZM35 70C54.33 70 70 54.33 70 35C70 15.67 54.33 0 35 0C15.67 0 0 15.67 0 35C0 54.33 15.67 70 35 70Z" fill="white"/>
</g>
</svg>
