<svg width="29" height="54" viewBox="0 0 29 54" fill="none" xmlns="http://www.w3.org/2000/svg">
<path d="M23.5 1C25.706 1 27.5 2.794 27.5 5V49C27.5 51.206 25.706 53 23.5 53H5.5C3.294 53 1.5 51.206 1.5 49V5C1.5 2.794 3.294 1 5.5 1H23.5ZM23.5 0H5.5C2.75 0 0.5 2.25 0.5 5V49C0.5 51.75 2.75 54 5.5 54H23.5C26.25 54 28.5 51.75 28.5 49V5C28.5 2.25 26.25 0 23.5 0Z" fill="white"/>
<path d="M11.5 3H10.5V4H11.5V3Z" fill="white"/>
<path d="M14.5 49C15.051 49 15.5 49.449 15.5 50C15.5 50.551 15.051 51 14.5 51C13.949 51 13.5 50.551 13.5 50C13.5 49.449 13.949 49 14.5 49ZM14.5 48C13.396 48 12.5 48.896 12.5 50C12.5 51.104 13.396 52 14.5 52C15.604 52 16.5 51.104 16.5 50C16.5 48.896 15.604 48 14.5 48Z" fill="white"/>
<path d="M16.5 3H12.5V4H16.5V3Z" fill="white"/>
</svg>
